<svg width="309" height="65" viewBox="0 0 309 65" fill="none" xmlns="http://www.w3.org/2000/svg">
<path d="M87.8179 43.7621C87.468 43.7621 87.1619 43.6418 86.8994 43.4012C86.6588 43.1388 86.5386 42.8326 86.5386 42.4827V20.4708H78.7639C78.4139 20.4708 78.1296 20.3614 77.9109 20.1427C77.6922 19.924 77.5829 19.6507 77.5829 19.3226C77.5829 18.9727 77.6922 18.6884 77.9109 18.4697C78.1296 18.251 78.4139 18.1416 78.7639 18.1416H96.9048C97.2548 18.1416 97.5391 18.251 97.7578 18.4697C97.9765 18.6884 98.0858 18.9727 98.0858 19.3226C98.0858 19.6507 97.9765 19.924 97.7578 20.1427C97.5391 20.3614 97.2548 20.4708 96.9048 20.4708H89.0973V42.4827C89.0973 42.8326 88.977 43.1388 88.7365 43.4012C88.4959 43.6418 88.1897 43.7621 87.8179 43.7621ZM102.819 43.7621C102.425 43.7621 102.108 43.6527 101.867 43.434C101.649 43.1935 101.539 42.8873 101.539 42.5155V27.0973C101.539 26.7037 101.649 26.3975 101.867 26.1788C102.108 25.9382 102.425 25.8179 102.819 25.8179C103.19 25.8179 103.486 25.9382 103.704 26.1788C103.945 26.3975 104.065 26.7037 104.065 27.0973V28.2127C104.765 27.4035 105.629 26.7693 106.657 26.31C107.707 25.8507 108.833 25.6211 110.036 25.6211C111.588 25.6211 112.977 25.9492 114.202 26.6052C115.427 27.2395 116.389 28.1799 117.089 29.4264C117.81 30.673 118.171 32.193 118.171 33.9863V42.5155C118.171 42.8654 118.051 43.1607 117.81 43.4012C117.57 43.6418 117.275 43.7621 116.925 43.7621C116.553 43.7621 116.247 43.6418 116.006 43.4012C115.766 43.1607 115.645 42.8654 115.645 42.5155V33.9863C115.645 31.9524 115.077 30.4543 113.939 29.4921C112.824 28.5079 111.435 28.0158 109.773 28.0158C108.702 28.0158 107.728 28.2236 106.854 28.6391C106.001 29.0547 105.323 29.6233 104.82 30.345C104.317 31.0667 104.065 31.8868 104.065 32.8053V42.5155C104.065 42.8873 103.945 43.1935 103.704 43.434C103.486 43.6527 103.19 43.7621 102.819 43.7621ZM102.819 36.4466C102.425 36.4466 102.108 36.3264 101.867 36.0858C101.649 35.8452 101.539 35.539 101.539 35.1673V19.421C101.539 19.0274 101.649 18.7212 101.867 18.5025C102.108 18.2619 102.425 18.1416 102.819 18.1416C103.19 18.1416 103.486 18.2619 103.704 18.5025C103.945 18.7212 104.065 19.0274 104.065 19.421V35.1673C104.065 35.539 103.945 35.8452 103.704 36.0858C103.486 36.3264 103.19 36.4466 102.819 36.4466ZM131.876 43.9261C130.104 43.9261 128.53 43.5434 127.152 42.7779C125.796 41.9906 124.724 40.9081 123.937 39.5303C123.171 38.1525 122.789 36.5779 122.789 34.8064C122.789 33.0131 123.15 31.4385 123.871 30.0825C124.615 28.7047 125.632 27.6222 126.922 26.8349C128.212 26.0476 129.7 25.6539 131.384 25.6539C133.046 25.6539 134.489 26.0366 135.714 26.8021C136.96 27.5456 137.923 28.5845 138.601 29.9185C139.279 31.2526 139.618 32.7725 139.618 34.4784C139.618 34.8283 139.508 35.1126 139.289 35.3313C139.071 35.5281 138.786 35.6265 138.437 35.6265H125.183C125.315 36.8075 125.676 37.8572 126.266 38.7758C126.857 39.6724 127.633 40.3832 128.595 40.9081C129.557 41.4111 130.651 41.6626 131.876 41.6626C132.663 41.6626 133.45 41.5314 134.238 41.2689C135.047 40.9846 135.692 40.6347 136.173 40.2192C136.414 40.0224 136.687 39.9239 136.993 39.9239C137.299 39.9021 137.562 39.9786 137.78 40.1536C138.065 40.416 138.207 40.7003 138.207 41.0065C138.229 41.3127 138.109 41.5751 137.846 41.7938C137.124 42.4062 136.206 42.9201 135.09 43.3356C133.975 43.7293 132.904 43.9261 131.876 43.9261ZM131.384 27.9174C129.7 27.9174 128.311 28.4423 127.217 29.4921C126.124 30.5199 125.468 31.8649 125.249 33.527H137.256C137.081 31.8649 136.468 30.5199 135.419 29.4921C134.391 28.4423 133.046 27.9174 131.384 27.9174ZM154.157 43.7621C153.808 43.7621 153.501 43.6418 153.239 43.4012C152.998 43.1607 152.878 42.8545 152.878 42.4827C152.878 42.1547 152.998 41.8594 153.239 41.597L163.179 29.8529C163.725 29.2624 164.163 28.6063 164.491 27.8846C164.819 27.1411 164.983 26.4522 164.983 25.8179C164.983 24.287 164.535 23.0295 163.638 22.0454C162.741 21.0613 161.582 20.5692 160.161 20.5692C159.242 20.5692 158.4 20.8098 157.635 21.2909C156.891 21.7502 156.301 22.3734 155.863 23.1608C155.448 23.9481 155.24 24.8338 155.24 25.8179C155.24 26.1679 155.12 26.4631 154.879 26.7037C154.639 26.9442 154.332 27.0645 153.961 27.0645C153.611 27.0645 153.305 26.9442 153.042 26.7037C152.801 26.4631 152.681 26.1679 152.681 25.8179C152.681 24.3527 153.009 23.0405 153.665 21.8814C154.321 20.7223 155.207 19.8037 156.323 19.1258C157.46 18.4478 158.739 18.1088 160.161 18.1088C161.582 18.1088 162.84 18.4369 163.933 19.093C165.049 19.7491 165.912 20.6567 166.525 21.8158C167.159 22.9749 167.476 24.3089 167.476 25.8179C167.476 26.8896 167.214 27.9065 166.689 28.8688C166.186 29.8092 165.595 30.673 164.917 31.4603L156.519 41.2033H166.787C167.137 41.2033 167.432 41.3345 167.673 41.597C167.935 41.8594 168.067 42.1547 168.067 42.4827C168.067 42.8545 167.935 43.1607 167.673 43.4012C167.432 43.6418 167.137 43.7621 166.787 43.7621H154.157ZM179.452 43.9261C177.921 43.9261 176.543 43.5981 175.318 42.942C174.115 42.264 173.164 41.3455 172.464 40.1864C171.764 39.0273 171.414 37.7151 171.414 36.2498C171.414 35.878 171.524 35.5609 171.743 35.2985C171.961 35.036 172.256 34.9048 172.628 34.9048C173 34.9048 173.295 35.036 173.514 35.2985C173.733 35.5609 173.842 35.878 173.842 36.2498C173.842 37.2558 174.083 38.1634 174.564 38.9726C175.045 39.7599 175.701 40.3941 176.532 40.8753C177.385 41.3345 178.325 41.5642 179.353 41.5642C181.059 41.5642 182.393 41.094 183.355 40.1536C184.318 39.1913 184.799 37.9557 184.799 36.4466C184.799 35.375 184.569 34.4456 184.11 33.6582C183.651 32.8491 183.027 32.2258 182.24 31.7884C181.453 31.3291 180.567 31.0995 179.583 31.0995C179.233 31.0995 178.938 30.9792 178.697 30.7386C178.457 30.4981 178.336 30.1919 178.336 29.8201C178.336 29.4702 178.457 29.1749 178.697 28.9344C178.938 28.6938 179.233 28.5735 179.583 28.5735C180.348 28.5735 181.048 28.3876 181.682 28.0158C182.338 27.6222 182.863 27.1083 183.257 26.474C183.651 25.8398 183.847 25.14 183.847 24.3745C183.847 23.2154 183.454 22.2532 182.666 21.4877C181.879 20.7004 180.829 20.3068 179.517 20.3068C178.139 20.3068 177.002 20.7004 176.106 21.4877C175.209 22.2532 174.761 23.2045 174.761 24.3417C174.761 24.7135 174.64 25.0306 174.4 25.2931C174.181 25.5336 173.897 25.6539 173.547 25.6539C173.175 25.6539 172.88 25.5336 172.661 25.2931C172.442 25.0306 172.333 24.7244 172.333 24.3745C172.333 23.1717 172.639 22.0891 173.252 21.1269C173.886 20.1427 174.739 19.3773 175.81 18.8305C176.882 18.2619 178.118 17.9776 179.517 17.9776C180.786 17.9776 181.923 18.2619 182.929 18.8305C183.957 19.3773 184.766 20.1427 185.356 21.1269C185.969 22.0891 186.275 23.1717 186.275 24.3745C186.275 25.1181 186.089 25.8398 185.717 26.5396C185.367 27.2395 184.897 27.8737 184.307 28.4423C183.716 28.9891 183.071 29.4155 182.371 29.7217C184.055 30.2247 185.302 31.0995 186.111 32.3461C186.92 33.5926 187.325 34.9595 187.325 36.4466C187.325 37.8901 186.975 39.1804 186.275 40.3176C185.597 41.433 184.657 42.3187 183.454 42.9748C182.251 43.609 180.917 43.9261 179.452 43.9261ZM209.138 43.7621C208.788 43.7621 208.481 43.6418 208.219 43.4012C207.978 43.1388 207.858 42.8326 207.858 42.4827V20.4708H200.083C199.734 20.4708 199.449 20.3614 199.231 20.1427C199.012 19.924 198.902 19.6507 198.902 19.3226C198.902 18.9727 199.012 18.6884 199.231 18.4697C199.449 18.251 199.734 18.1416 200.083 18.1416H218.224C218.574 18.1416 218.859 18.251 219.077 18.4697C219.296 18.6884 219.405 18.9727 219.405 19.3226C219.405 19.6507 219.296 19.924 219.077 20.1427C218.859 20.3614 218.574 20.4708 218.224 20.4708H210.417V42.4827C210.417 42.8326 210.297 43.1388 210.056 43.4012C209.815 43.6418 209.509 43.7621 209.138 43.7621ZM225.831 43.9261C224.147 43.9261 222.638 43.5325 221.304 42.7451C219.97 41.936 218.909 40.8425 218.122 39.4647C217.357 38.0869 216.974 36.5341 216.974 34.8064C216.974 33.0568 217.368 31.4931 218.155 30.1153C218.964 28.7375 220.058 27.655 221.435 26.8677C222.813 26.0585 224.366 25.6539 226.094 25.6539C227.821 25.6539 229.363 26.0585 230.719 26.8677C232.097 27.655 233.18 28.7375 233.967 30.1153C234.776 31.4931 235.192 33.0568 235.213 34.8064V42.5155C235.213 42.8873 235.093 43.1935 234.853 43.434C234.612 43.6527 234.306 43.7621 233.934 43.7621C233.562 43.7621 233.256 43.6527 233.015 43.434C232.775 43.1935 232.655 42.8873 232.655 42.5155V40.5144C231.911 41.5642 230.949 42.3952 229.768 43.0076C228.587 43.6199 227.275 43.9261 225.831 43.9261ZM226.094 41.6298C227.362 41.6298 228.488 41.3345 229.473 40.7441C230.479 40.1536 231.266 39.3444 231.835 38.3165C232.425 37.2668 232.72 36.0967 232.72 34.8064C232.72 33.4942 232.425 32.3242 231.835 31.2963C231.266 30.2684 230.479 29.4593 229.473 28.8688C228.488 28.2564 227.362 27.9502 226.094 27.9502C224.847 27.9502 223.721 28.2564 222.715 28.8688C221.709 29.4593 220.911 30.2684 220.32 31.2963C219.73 32.3242 219.434 33.4942 219.434 34.8064C219.434 36.0967 219.73 37.2668 220.32 38.3165C220.911 39.3444 221.709 40.1536 222.715 40.7441C223.721 41.3345 224.847 41.6298 226.094 41.6298ZM247.146 43.7621C245.987 43.7621 244.948 43.4887 244.03 42.942C243.133 42.3952 242.422 41.6517 241.898 40.7113C241.373 39.749 241.11 38.6555 241.11 37.4308V28.6719H238.978C238.65 28.6719 238.377 28.5735 238.158 28.3767C237.939 28.158 237.83 27.8956 237.83 27.5894C237.83 27.2613 237.939 26.9989 238.158 26.8021C238.377 26.5834 238.65 26.474 238.978 26.474H241.11V21.3893C241.11 21.0175 241.22 20.7113 241.438 20.4708C241.679 20.2302 241.985 20.1099 242.357 20.1099C242.729 20.1099 243.035 20.2302 243.275 20.4708C243.516 20.7113 243.636 21.0175 243.636 21.3893V26.474H247.343C247.671 26.474 247.945 26.5834 248.163 26.8021C248.382 26.9989 248.491 27.2613 248.491 27.5894C248.491 27.8956 248.382 28.158 248.163 28.3767C247.945 28.5735 247.671 28.6719 247.343 28.6719H243.636V37.4308C243.636 38.5461 243.964 39.4647 244.62 40.1864C245.276 40.8862 246.118 41.2361 247.146 41.2361H248.032C248.382 41.2361 248.666 41.3564 248.885 41.597C249.104 41.8375 249.213 42.1437 249.213 42.5155C249.213 42.8873 249.082 43.1935 248.819 43.434C248.557 43.6527 248.229 43.7621 247.835 43.7621H247.146ZM260.345 43.7621C259.186 43.7621 258.147 43.4887 257.229 42.942C256.332 42.3952 255.621 41.6517 255.096 40.7113C254.571 39.749 254.309 38.6555 254.309 37.4308V28.6719H252.177C251.849 28.6719 251.575 28.5735 251.357 28.3767C251.138 28.158 251.029 27.8956 251.029 27.5894C251.029 27.2613 251.138 26.9989 251.357 26.8021C251.575 26.5834 251.849 26.474 252.177 26.474H254.309V21.3893C254.309 21.0175 254.418 20.7113 254.637 20.4708C254.878 20.2302 255.184 20.1099 255.556 20.1099C255.927 20.1099 256.234 20.2302 256.474 20.4708C256.715 20.7113 256.835 21.0175 256.835 21.3893V26.474H260.542C260.87 26.474 261.143 26.5834 261.362 26.8021C261.581 26.9989 261.69 27.2613 261.69 27.5894C261.69 27.8956 261.581 28.158 261.362 28.3767C261.143 28.5735 260.87 28.6719 260.542 28.6719H256.835V37.4308C256.835 38.5461 257.163 39.4647 257.819 40.1864C258.475 40.8862 259.317 41.2361 260.345 41.2361H261.231C261.581 41.2361 261.865 41.3564 262.084 41.597C262.302 41.8375 262.412 42.1437 262.412 42.5155C262.412 42.8873 262.281 43.1935 262.018 43.434C261.756 43.6527 261.428 43.7621 261.034 43.7621H260.345ZM274.692 43.9261C272.942 43.9261 271.379 43.5325 270.001 42.7451C268.623 41.9578 267.541 40.8753 266.753 39.4975C265.966 38.1197 265.572 36.556 265.572 34.8064C265.572 33.035 265.966 31.4603 266.753 30.0825C267.541 28.7047 268.623 27.6222 270.001 26.8349C271.379 26.0476 272.942 25.6539 274.692 25.6539C276.442 25.6539 277.994 26.0476 279.35 26.8349C280.728 27.6222 281.811 28.7047 282.598 30.0825C283.385 31.4603 283.79 33.035 283.812 34.8064C283.812 36.556 283.407 38.1197 282.598 39.4975C281.811 40.8753 280.728 41.9578 279.35 42.7451C277.994 43.5325 276.442 43.9261 274.692 43.9261ZM274.692 41.6298C275.96 41.6298 277.098 41.3345 278.104 40.7441C279.11 40.1536 279.897 39.3444 280.466 38.3165C281.034 37.2886 281.319 36.1186 281.319 34.8064C281.319 33.4942 281.034 32.3242 280.466 31.2963C279.897 30.2466 279.11 29.4264 278.104 28.836C277.098 28.2455 275.96 27.9502 274.692 27.9502C273.424 27.9502 272.286 28.2455 271.28 28.836C270.274 29.4264 269.476 30.2466 268.886 31.2963C268.317 32.3242 268.033 33.4942 268.033 34.8064C268.033 36.1186 268.317 37.2886 268.886 38.3165C269.476 39.3444 270.274 40.1536 271.28 40.7441C272.286 41.3345 273.424 41.6298 274.692 41.6298ZM296.893 43.9261C295.143 43.9261 293.58 43.5325 292.202 42.7451C290.824 41.9578 289.741 40.8753 288.954 39.4975C288.167 38.1197 287.773 36.556 287.773 34.8064C287.773 33.035 288.167 31.4603 288.954 30.0825C289.741 28.7047 290.824 27.6222 292.202 26.8349C293.58 26.0476 295.143 25.6539 296.893 25.6539C298.642 25.6539 300.195 26.0476 301.551 26.8349C302.929 27.6222 304.011 28.7047 304.799 30.0825C305.586 31.4603 305.991 33.035 306.013 34.8064C306.013 36.556 305.608 38.1197 304.799 39.4975C304.011 40.8753 302.929 41.9578 301.551 42.7451C300.195 43.5325 298.642 43.9261 296.893 43.9261ZM296.893 41.6298C298.161 41.6298 299.298 41.3345 300.304 40.7441C301.311 40.1536 302.098 39.3444 302.666 38.3165C303.235 37.2886 303.519 36.1186 303.519 34.8064C303.519 33.4942 303.235 32.3242 302.666 31.2963C302.098 30.2466 301.311 29.4264 300.304 28.836C299.298 28.2455 298.161 27.9502 296.893 27.9502C295.624 27.9502 294.487 28.2455 293.481 28.836C292.475 29.4264 291.677 30.2466 291.086 31.2963C290.518 32.3242 290.233 33.4942 290.233 34.8064C290.233 36.1186 290.518 37.2886 291.086 38.3165C291.677 39.3444 292.475 40.1536 293.481 40.7441C294.487 41.3345 295.624 41.6298 296.893 41.6298Z" fill="white"/>
<path d="M14.6084 9.6909C11.1742 22.3945 2.23389 29.339 0.57863 35.4616C-1.07663 41.5841 -1.03287 55.3913 27.1294 63.0055C55.2916 70.6197 64.1006 54.4419 65.9195 47.7067C74.445 16.1769 20.691 -12.8092 14.6084 9.6909Z" fill="#EFEFEF"/>
<path d="M22.3558 51.2521V45.2437H16.3474L12.8428 49.0488H18.5506V54.7566L22.3558 51.2521Z" fill="#F3F3F1"/>
<path d="M46.1382 51.2521V45.2437H52.1466L55.6512 49.0488H49.9434V54.7566L46.1382 51.2521Z" fill="#F3F3F1"/>
<path d="M34.247 20.9856C35.8231 20.9856 37.1009 19.7079 37.1009 18.1317C37.1009 16.5556 35.8231 15.2778 34.247 15.2778C32.6708 15.2778 31.3931 16.5556 31.3931 18.1317C31.3931 19.7079 32.6708 20.9856 34.247 20.9856Z" fill="#F3F3F1"/>
<path d="M34.247 53.3297C35.8231 53.3297 37.1009 52.052 37.1009 50.4758C37.1009 48.8997 35.8231 47.6219 34.247 47.6219C32.6708 47.6219 31.3931 48.8997 31.3931 50.4758C31.3931 52.052 32.6708 53.3297 34.247 53.3297Z" fill="#F3F3F1"/>
<path d="M20.8657 44.7083L53.2055 12.3685L55.2232 14.3862L22.8834 46.726L20.8657 44.7083Z" fill="url(#paint0_linear)"/>
<path d="M57.078 17.1805H54.2241V13.3753H50.4189V10.5214H55.6511C56.4388 10.5214 57.078 11.1606 57.078 11.9483V17.1805Z" fill="url(#paint1_linear)"/>
<path d="M18.5507 56.1837C18.3566 56.1837 18.1626 56.1437 17.978 56.0638C17.4586 55.8355 17.1237 55.3237 17.1237 54.7567V50.4759H12.8429C12.2759 50.4759 11.7641 50.141 11.5358 49.6216C11.3075 49.1022 11.4102 48.4991 11.7927 48.0805L15.2972 44.2753C15.5674 43.9842 15.9479 43.8168 16.3475 43.8168H22.3559C23.1436 43.8168 23.7828 44.456 23.7828 45.2437V51.2521C23.7828 51.6498 23.6154 52.0322 23.3224 52.3024L19.5172 55.8069C19.2489 56.0543 18.9027 56.1837 18.5507 56.1837ZM16.0963 47.622H18.5507C19.3384 47.622 19.9776 48.2612 19.9776 49.0489V51.5033L20.9289 50.6281V46.6707H16.9734L16.0963 47.622Z" fill="url(#paint2_linear)"/>
<path d="M13.2573 14.3864L15.275 12.3686L47.6148 44.7084L45.5971 46.7261L13.2573 14.3864Z" fill="url(#paint3_linear)"/>
<path d="M14.2699 17.6561H11.416V11.9483C11.416 11.1606 12.0553 10.5214 12.843 10.5214H18.5508V13.3753H14.2699V17.6561Z" fill="url(#paint4_linear)"/>
<path d="M49.9436 56.1837C49.5916 56.1837 49.2453 56.0543 48.977 55.8069L45.1719 52.3024C44.8789 52.0322 44.7114 51.6517 44.7114 51.2521V45.2437C44.7114 44.456 45.3507 43.8168 46.1384 43.8168H52.1468C52.5463 43.8168 52.9268 43.9842 53.197 44.2772L56.7016 48.0824C57.084 48.4991 57.1867 49.1041 56.9584 49.6235C56.7301 50.141 56.2183 50.4759 55.6514 50.4759H51.3705V54.7567C51.3705 55.3237 51.0357 55.8355 50.5162 56.0638C50.3317 56.1437 50.1376 56.1837 49.9436 56.1837ZM47.5653 50.6262L48.5166 51.5014V49.047C48.5166 48.2593 49.1559 47.6201 49.9436 47.6201H52.3979L51.5208 46.6707H47.5653V50.6262Z" fill="url(#paint5_linear)"/>
<path d="M15.1587 31.5065L17.1767 29.4885L22.885 35.1967L20.867 37.2147L15.1587 31.5065Z" fill="url(#paint6_linear)"/>
<path d="M15.1587 35.1948L20.867 29.4865L22.885 31.5046L17.1767 37.2128L15.1587 35.1948Z" fill="url(#paint7_linear)"/>
<path d="M45.5962 31.5103L47.6142 29.4922L53.3225 35.2005L51.3045 37.2185L45.5962 31.5103Z" fill="url(#paint8_linear)"/>
<path d="M45.5962 35.1986L51.3045 29.4903L53.3225 31.5083L47.6142 37.2166L45.5962 35.1986Z" fill="url(#paint9_linear)"/>
<path d="M34.2472 22.4125C31.8879 22.4125 29.9663 20.4928 29.9663 18.1317C29.9663 15.7705 31.8879 13.8508 34.2472 13.8508C36.6064 13.8508 38.528 15.7705 38.528 18.1317C38.528 20.4928 36.6064 22.4125 34.2472 22.4125ZM34.2472 16.7047C33.4614 16.7047 32.8202 17.344 32.8202 18.1317C32.8202 18.9193 33.4614 19.5586 34.2472 19.5586C35.0329 19.5586 35.6741 18.9193 35.6741 18.1317C35.6741 17.344 35.0329 16.7047 34.2472 16.7047Z" fill="url(#paint10_linear)"/>
<path d="M34.2472 54.7568C31.8879 54.7568 29.9663 52.837 29.9663 50.4759C29.9663 48.1148 31.8879 46.1951 34.2472 46.1951C36.6064 46.1951 38.528 48.1148 38.528 50.4759C38.528 52.837 36.6064 54.7568 34.2472 54.7568ZM34.2472 49.049C33.4614 49.049 32.8202 49.6882 32.8202 50.4759C32.8202 51.2636 33.4614 51.9029 34.2472 51.9029C35.0329 51.9029 35.6741 51.2636 35.6741 50.4759C35.6741 49.6882 35.0329 49.049 34.2472 49.049Z" fill="url(#paint11_linear)"/>
<path d="M48.2786 5.70779C46.7051 5.70779 45.4247 4.42734 45.4247 2.8539C45.4247 1.28045 46.7051 0 48.2786 0C49.852 0 51.1325 1.28045 51.1325 2.8539C51.1325 4.42734 49.852 5.70779 48.2786 5.70779ZM48.2786 1.9026C47.7554 1.9026 47.3273 2.32878 47.3273 2.8539C47.3273 3.37901 47.7554 3.80519 48.2786 3.80519C48.8018 3.80519 49.2299 3.37901 49.2299 2.8539C49.2299 2.32878 48.8018 1.9026 48.2786 1.9026Z" fill="url(#paint12_linear)"/>
<defs>
<linearGradient id="paint0_linear" x1="21.8746" y1="45.7171" x2="54.2143" y2="13.3773" gradientUnits="userSpaceOnUse">
<stop stop-color="#EE0979"/>
<stop offset="1" stop-color="#FF6A00"/>
</linearGradient>
<linearGradient id="paint1_linear" x1="50.4189" y1="13.8509" x2="57.078" y2="13.8509" gradientUnits="userSpaceOnUse">
<stop stop-color="#EE0979"/>
<stop offset="1" stop-color="#FF6A00"/>
</linearGradient>
<linearGradient id="paint2_linear" x1="11.4155" y1="50.0002" x2="23.7828" y2="50.0002" gradientUnits="userSpaceOnUse">
<stop stop-color="#EE0979"/>
<stop offset="1" stop-color="#FF6A00"/>
</linearGradient>
<linearGradient id="paint3_linear" x1="29.4272" y1="30.5562" x2="31.4449" y2="28.5385" gradientUnits="userSpaceOnUse">
<stop stop-color="#EE0979"/>
<stop offset="1" stop-color="#FF6A00"/>
</linearGradient>
<linearGradient id="paint4_linear" x1="11.416" y1="14.0887" x2="18.5508" y2="14.0887" gradientUnits="userSpaceOnUse">
<stop stop-color="#EE0979"/>
<stop offset="1" stop-color="#FF6A00"/>
</linearGradient>
<linearGradient id="paint5_linear" x1="44.7114" y1="50.0002" x2="57.0787" y2="50.0002" gradientUnits="userSpaceOnUse">
<stop stop-color="#EE0979"/>
<stop offset="1" stop-color="#FF6A00"/>
</linearGradient>
<linearGradient id="paint6_linear" x1="20.8737" y1="37.208" x2="22.3517" y2="30.6659" gradientUnits="userSpaceOnUse">
<stop stop-color="#000428"/>
<stop offset="1" stop-color="#004E92"/>
</linearGradient>
<linearGradient id="paint7_linear" x1="17.1957" y1="37.1939" x2="14.7719" y2="33.5738" gradientUnits="userSpaceOnUse">
<stop stop-color="#000428"/>
<stop offset="1" stop-color="#004E92"/>
</linearGradient>
<linearGradient id="paint8_linear" x1="51.3112" y1="37.2118" x2="52.7892" y2="30.6696" gradientUnits="userSpaceOnUse">
<stop stop-color="#000428"/>
<stop offset="1" stop-color="#004E92"/>
</linearGradient>
<linearGradient id="paint9_linear" x1="47.6332" y1="37.1977" x2="45.2094" y2="33.5775" gradientUnits="userSpaceOnUse">
<stop stop-color="#000428"/>
<stop offset="1" stop-color="#004E92"/>
</linearGradient>
<linearGradient id="paint10_linear" x1="29.9948" y1="22.4125" x2="35.674" y2="12.2689" gradientUnits="userSpaceOnUse">
<stop stop-color="#000428"/>
<stop offset="1" stop-color="#004E92"/>
</linearGradient>
<linearGradient id="paint11_linear" x1="29.9948" y1="54.7568" x2="35.674" y2="44.6131" gradientUnits="userSpaceOnUse">
<stop stop-color="#000428"/>
<stop offset="1" stop-color="#004E92"/>
</linearGradient>
<linearGradient id="paint12_linear" x1="45.4247" y1="2.8539" x2="51.1325" y2="2.8539" gradientUnits="userSpaceOnUse">
<stop stop-color="#EE0979"/>
<stop offset="1" stop-color="#FF6A00"/>
</linearGradient>
</defs>
</svg>
